<svg width="19" height="19" viewBox="0 0 19 19" fill="none" xmlns="http://www.w3.org/2000/svg">
<path d="M17.5697 9.1919C17.6405 9.3557 17.6765 9.53245 17.6752 9.71091V16.8595C17.6752 17.2005 17.5398 17.5275 17.2987 17.7686C17.0576 18.0097 16.7305 18.1452 16.3895 18.1452H11.986V13.0969H7.58252V18.1452H2.24668C1.90569 18.1452 1.57866 18.0097 1.33754 17.7686C1.09643 17.5275 0.960967 17.2005 0.960967 16.8595V9.71091C0.959759 9.53245 0.995716 9.3557 1.06655 9.1919C1.13738 9.02809 1.24154 8.88083 1.3724 8.75948L9.31811 1.43091L17.2638 8.75948C17.3947 8.88083 17.4988 9.02809 17.5697 9.1919Z" stroke="#AE8138" stroke-width="1.5" stroke-linecap="round" stroke-linejoin="round"/>
</svg>
