<svg width="19" height="19" viewBox="0 0 19 19" fill="none" xmlns="http://www.w3.org/2000/svg">
<g clip-path="url(#clip0_2197_52121)">
<path d="M9.31808 18.1452C13.9336 18.1452 17.6752 14.4036 17.6752 9.78805C17.6752 5.17253 13.9336 1.43091 9.31808 1.43091C4.70256 1.43091 0.960938 5.17253 0.960938 9.78805C0.960938 14.4036 4.70256 18.1452 9.31808 18.1452Z" stroke="#D0D0D0" stroke-width="1.5" stroke-linecap="round" stroke-linejoin="round"/>
<path d="M9.69555 5.36763L10.8857 7.77033C10.9127 7.83132 10.9553 7.88414 11.0092 7.92354C11.063 7.96294 11.1262 7.98754 11.1926 7.99488L13.8198 8.38411C13.8959 8.39389 13.9676 8.4251 14.0266 8.47412C14.0856 8.52313 14.1294 8.58792 14.153 8.66091C14.1765 8.73391 14.1788 8.81209 14.1596 8.88634C14.1403 8.96059 14.1004 9.02783 14.0444 9.08022L12.1506 10.959C12.1023 11.0041 12.066 11.0606 12.0451 11.1234C12.0242 11.1861 12.0193 11.2531 12.0309 11.3182L12.4875 13.9605C12.5007 14.0364 12.4923 14.1145 12.4634 14.1859C12.4344 14.2573 12.3859 14.3192 12.3235 14.3644C12.2612 14.4096 12.1873 14.4364 12.1104 14.4418C12.0336 14.4471 11.9567 14.4308 11.8887 14.3946L9.5234 13.1446C9.46283 13.1149 9.39625 13.0994 9.32878 13.0994C9.26131 13.0994 9.19474 13.1149 9.13417 13.1446L6.76889 14.3946C6.70085 14.4308 6.62401 14.4471 6.54713 14.4418C6.47025 14.4364 6.39642 14.4096 6.33402 14.3644C6.27163 14.3192 6.22319 14.2573 6.19421 14.1859C6.16523 14.1145 6.15687 14.0364 6.17009 13.9605L6.62668 11.2883C6.63825 11.2232 6.63336 11.1562 6.61244 11.0935C6.59152 11.0307 6.55525 10.9742 6.50692 10.929L4.59074 9.08022C4.53405 9.0264 4.49419 8.95729 4.47597 8.88128C4.45776 8.80526 4.46197 8.72559 4.48811 8.65192C4.51425 8.57825 4.5612 8.51374 4.62325 8.46621C4.68531 8.41868 4.75982 8.39016 4.83775 8.38411L7.46501 7.99488C7.53132 7.98754 7.59455 7.96294 7.6484 7.92354C7.70225 7.88414 7.74482 7.83132 7.77189 7.77033L8.96202 5.36763C8.99443 5.29765 9.04618 5.23841 9.11117 5.19688C9.17615 5.15536 9.25166 5.1333 9.32878 5.1333C9.4059 5.1333 9.48141 5.15536 9.5464 5.19688C9.61139 5.23841 9.66314 5.29765 9.69555 5.36763V5.36763Z" stroke="#D0D0D0" stroke-width="1.5" stroke-linecap="round" stroke-linejoin="round"/>
</g>
<defs>
<clipPath id="clip0_2197_52121">
<rect width="18" height="18" fill="white" transform="translate(0.318359 0.788086)"/>
</clipPath>
</defs>
</svg>
