<svg width="19" height="19" viewBox="0 0 19 19" fill="none" xmlns="http://www.w3.org/2000/svg">
<path d="M13.7471 6.57373L13.4256 7.85944" stroke="#D0D0D0" stroke-width="1.5" stroke-linecap="round" stroke-linejoin="round"/>
<path d="M9.24693 6.57373L9.56836 7.85944" stroke="#D0D0D0" stroke-width="1.5" stroke-linecap="round" stroke-linejoin="round"/>
<path d="M16.2281 10.431H5.71092L4.42521 4.00244H17.2824C17.3764 4.00279 17.4692 4.02375 17.5542 4.06386C17.6393 4.10397 17.7145 4.16224 17.7745 4.23457C17.8346 4.3069 17.8781 4.39153 17.9019 4.48249C17.9257 4.57345 17.9293 4.66852 17.9124 4.76101L16.8581 9.90387C16.8335 10.0526 16.7564 10.1875 16.6408 10.2842C16.5252 10.381 16.3788 10.433 16.2281 10.431V10.431Z" stroke="#D0D0D0" stroke-width="1.5" stroke-linecap="round" stroke-linejoin="round"/>
<path d="M4.4248 4.00234L3.8848 1.94519C3.85516 1.79999 3.77627 1.66949 3.66146 1.57577C3.54666 1.48205 3.403 1.43088 3.2548 1.43091H1.21052" stroke="#D0D0D0" stroke-width="1.5" stroke-linecap="round" stroke-linejoin="round"/>
<path d="M5.71094 10.4309L6.25094 13.1309C6.28058 13.2761 6.35947 13.4066 6.47428 13.5003C6.58908 13.5941 6.73274 13.6452 6.88094 13.6452H14.7109" stroke="#D0D0D0" stroke-width="1.5" stroke-linecap="round" stroke-linejoin="round"/>
<path d="M14.0681 18.1451C13.713 18.1451 13.4252 17.8573 13.4252 17.5022C13.4252 17.1472 13.713 16.8594 14.0681 16.8594C14.4231 16.8594 14.7109 17.1472 14.7109 17.5022C14.7109 17.8573 14.4231 18.1451 14.0681 18.1451Z" stroke="#D0D0D0" stroke-width="1.5" stroke-linecap="round" stroke-linejoin="round"/>
<path d="M7.63937 18.1451C7.28433 18.1451 6.99651 17.8573 6.99651 17.5022C6.99651 17.1472 7.28433 16.8594 7.63937 16.8594C7.99441 16.8594 8.28223 17.1472 8.28223 17.5022C8.28223 17.8573 7.99441 18.1451 7.63937 18.1451Z" stroke="#D0D0D0" stroke-width="1.5" stroke-linecap="round" stroke-linejoin="round"/>
</svg>
