<svg width="19" height="19" viewBox="0 0 19 19" fill="none" xmlns="http://www.w3.org/2000/svg">
<g clip-path="url(#clip0_2197_52111)">
<path d="M12.2825 2.71667H14.2111C14.5521 2.71667 14.8791 2.85213 15.1202 3.09325C15.3613 3.33437 15.4968 3.6614 15.4968 4.00239V16.8595C15.4968 17.2005 15.3613 17.5275 15.1202 17.7687C14.8791 18.0098 14.5521 18.1452 14.2111 18.1452H3.92536C3.58437 18.1452 3.25734 18.0098 3.01623 17.7687C2.77511 17.5275 2.63965 17.2005 2.63965 16.8595V4.00239C2.63965 3.6614 2.77511 3.33437 3.01623 3.09325C3.25734 2.85213 3.58437 2.71667 3.92536 2.71667H5.85393" stroke="#D0D0D0" stroke-width="1.5" stroke-linecap="round" stroke-linejoin="round"/>
<path d="M10.9964 1.43091H7.13923C6.42915 1.43091 5.85352 2.00654 5.85352 2.71662V3.35948C5.85352 4.06956 6.42915 4.64519 7.13923 4.64519H10.9964C11.7065 4.64519 12.2821 4.06956 12.2821 3.35948V2.71662C12.2821 2.00654 11.7065 1.43091 10.9964 1.43091Z" stroke="#D0D0D0" stroke-width="1.5" stroke-linecap="round" stroke-linejoin="round"/>
<path d="M5.85352 7.85938H12.2821" stroke="#D0D0D0" stroke-width="1.5" stroke-linecap="round" stroke-linejoin="round"/>
<path d="M5.85352 11.0737H12.2821" stroke="#D0D0D0" stroke-width="1.5" stroke-linecap="round" stroke-linejoin="round"/>
<path d="M5.85352 14.2881H12.2821" stroke="#D0D0D0" stroke-width="1.5" stroke-linecap="round" stroke-linejoin="round"/>
</g>
<defs>
<clipPath id="clip0_2197_52111">
<rect width="18" height="18" fill="white" transform="translate(0.0683594 0.788086)"/>
</clipPath>
</defs>
</svg>
