<svg width="16" height="67" viewBox="0 0 16 67" fill="none" xmlns="http://www.w3.org/2000/svg">
<path d="M2.28484 37.8494C2.54953 40.5881 2.99141 42.6269 3.60938 43.9656C4.22625 45.3033 5.33203 45.9748 6.92344 45.9748C7.22203 45.9748 7.49 45.9256 7.75578 45.8753C8.02375 45.9256 8.28844 45.9748 8.58594 45.9748C10.1752 45.9748 11.2788 45.3033 11.9 43.9656C12.5158 42.6269 12.9588 40.5881 13.2223 37.8494L14.6355 16.7072C14.9002 12.5859 15.0325 9.62735 15.0325 7.8336C15.0325 5.39016 14.3927 3.48375 13.1152 2.11766C11.8322 0.750471 10.1467 0.0646896 8.05766 0.0646896C7.94828 0.0646896 7.86406 0.0898458 7.75797 0.0942208C7.65188 0.0898458 7.56656 0.0646896 7.45828 0.0646896C5.36703 0.0646896 3.68375 0.749377 2.40188 2.11766C1.12219 3.48485 0.482346 5.39125 0.482346 7.83469C0.482346 9.62953 0.615782 12.587 0.879376 16.7083L2.29141 37.8494M7.79844 53.6956C5.77609 53.6956 4.04906 54.3377 2.61844 55.6141C1.19 56.8981 0.474689 58.4491 0.474689 60.2712C0.474689 62.3363 1.19766 63.9517 2.64141 65.1264C4.08953 66.3033 5.77609 66.8961 7.7 66.8961C9.66219 66.8961 11.3717 66.312 12.8341 65.1516C14.2964 63.9889 15.0216 62.3625 15.0216 60.2702C15.0216 58.448 14.3216 56.897 12.9248 55.613C11.5292 54.3377 9.81969 53.6956 7.79407 53.6956" fill="#BE212F"/>
</svg>
